# xmcd
#
# Track frame offsets: 
#        150
#        14655
#        33747
#        51030
#        64525
#        84410
#        109370
#        130740
#        155065
#        173577
#        205647
#        220475
#
# Disc length: 3108 seconds
#
# Revision: 0
# Processed by: cddbd v1.5.2PL0 Copyright (c) Steve Scherf et al.
# Submitted via: ExactAudioCopy v0.99pb4
#
DISCID=a60c220c
DTITLE=Fusebusters - Shades Of Blue
DYEAR=2003
DGENRE=Blues
TTITLE0=Romantic
TTITLE1=Why Should I Feel So Bad
TTITLE2=Akos
TTITLE3=I Don't Want To Hear About Yours
TTITLE4=Joe's Bar
TTITLE5=Speeding
TTITLE6=Stolen Time
TTITLE7=I Maybe Ugly
TTITLE8=Tell Me
TTITLE9=I ndigo Burrell
TTITLE10=Nothing But The (Moanin'Blues
TTITLE11=The Dream
EXTD=
EXTT0=
EXTT1=
EXTT2=
EXTT3=
EXTT4=
EXTT5=
EXTT6=
EXTT7=
EXTT8=
EXTT9=
EXTT10=
EXTT11=
PLAYORDER=
